HIERARCHY
ROOT Hips
{
	OFFSET -3.958830 18.904000 13.208200
	CHANNELS 6 Xposition Yposition Zposition Zrotation Yrotation Xrotation 
	JOINT LHipJoint
	{
		OFFSET 0.000000 0.000000 0.000000
		CHANNELS 3 Zrotation Yrotation Xrotation
		JOINT LeftUpLeg
		{
			OFFSET 1.800000 -1.400000 0.085000
			CHANNELS 3 Zrotation Yrotation Xrotation
			JOINT LeftLeg
			{
				OFFSET 2.215000 -6.000000 0.000000
				CHANNELS 3 Zrotation Yrotation Xrotation
				JOINT LeftFoot
				{
					OFFSET 2.500000 -6.900000 0.000000
					CHANNELS 3 Zrotation Yrotation Xrotation
					JOINT LeftToeBase
					{
						OFFSET 0.200000 -0.500000 1.950000
						CHANNELS 3 Zrotation Yrotation Xrotation
						End Site
						{
							OFFSET 0.000000 0.000000 0.000000
						}
					}
				}
			}
		}
	}
	JOINT RHipJoint
	{
		OFFSET 0.000000 0.000000 0.000000
		CHANNELS 3 Zrotation Yrotation Xrotation
		JOINT RightUpLeg
		{
			OFFSET -1.800000 -1.400000 0.085000
			CHANNELS 3 Zrotation Yrotation Xrotation
			JOINT RightLeg
			{
				OFFSET -2.215000 -6.000000 0.000000
				CHANNELS 3 Zrotation Yrotation Xrotation
				JOINT RightFoot
				{
					OFFSET -2.500000 -6.900000 0.000000
					CHANNELS 3 Zrotation Yrotation Xrotation
					JOINT RightToeBase
					{
						OFFSET -0.200000 -0.500000 1.950000
						CHANNELS 3 Zrotation Yrotation Xrotation
						End Site
						{
							OFFSET 0.000000 0.000000 0.000000
						}
					}
				}
			}
		}
	}
	JOINT LowerBack
	{
		OFFSET 0.000000 0.000000 0.000000
		CHANNELS 3 Zrotation Yrotation Xrotation
		JOINT Spine
		{
			OFFSET -0.087000 1.940000 -0.288900
			CHANNELS 3 Zrotation Yrotation Xrotation
			JOINT Spine1
			{
				OFFSET 0.000000 1.950000 0.060000
				CHANNELS 3 Zrotation Yrotation Xrotation
				JOINT Neck
				{
					OFFSET 0.000000 0.000000 0.000000
					CHANNELS 3 Zrotation Yrotation Xrotation
					JOINT Neck1
					{
						OFFSET 0.000000 1.600000 0.340000
						CHANNELS 3 Zrotation Yrotation Xrotation
						JOINT Head
						{
							OFFSET 0.000000 1.667000 -0.240000
							CHANNELS 3 Zrotation Yrotation Xrotation
							End Site
							{
								OFFSET 0.000000 0.000000 0.000000
							}
						}
					}
				}
				JOINT LeftShoulder
				{
					OFFSET 0.000000 0.000000 0.000000
					CHANNELS 3 Zrotation Yrotation Xrotation
					JOINT LeftArm
					{
						OFFSET 2.700000 1.550000 -0.730000
						CHANNELS 3 Zrotation Yrotation Xrotation
						JOINT LeftForeArm
						{
							OFFSET 5.450000 0.000000 0.000000
							CHANNELS 3 Zrotation Yrotation Xrotation
							JOINT LeftHand
							{
								OFFSET 3.450000 0.000000 0.000000
								CHANNELS 3 Zrotation Yrotation Xrotation
								JOINT LeftHandIndex1
								{
									OFFSET 0.750000 0.000000 0.000000
									CHANNELS 3 Zrotation Yrotation Xrotation
									End Site
									{
										OFFSET 0.000000 0.000000 0.000000
									}
								}
							}
						}
					}
				}
				JOINT RightShoulder
				{
					OFFSET 0.000000 0.000000 0.000000
					CHANNELS 3 Zrotation Yrotation Xrotation
					JOINT RightArm
					{
						OFFSET -2.700000 1.550000 -0.730000
						CHANNELS 3 Zrotation Yrotation Xrotation
						JOINT RightForeArm
						{
							OFFSET -5.450000 0.000000 0.000000
							CHANNELS 3 Zrotation Yrotation Xrotation
							JOINT RightHand
							{
								OFFSET -3.450000 0.000000 0.000000
								CHANNELS 3 Zrotation Yrotation Xrotation
								JOINT RightHandIndex1
								{
									OFFSET -0.750000 0.000000 0.000000
									CHANNELS 3 Zrotation Yrotation Xrotation
									End Site
									{
										OFFSET 0.000000 0.000000 0.000000
									}
								}
							}
						}
					}
				}
			}
		}
	}
}
MOTION
Frames: 10
Frame Time: 0.016667
-3.788200 13.013530 -4.911710 -141.785534 86.466606 -98.203270 -16.284385 8.064229 7.063766 12.774995 -24.764579 -76.723680 -40.666070 55.755458 81.684528 4.063034 21.826514 -1.734304 0.343540 0.220420 0.535170 18.009840 -6.677615 4.284694 -47.368669 7.900555 -35.980773 19.740542 -38.088124 76.568732 -2.862643 -14.765290 -0.461975 0.169920 -0.389420 0.008520 -2.408720 -6.593791 -11.166476 31.735106 -11.526478 60.590898 -9.750144 3.661923 0.175105 12.188043 7.093691 -16.537235 10.120792 -12.622035 56.368364 -7.957900 -8.674690 -17.233200 -35.211888 -28.808953 9.087926 -16.338834 1.371910 -10.139294 -1.766318 -44.728972 -0.523852 -3.159093 3.117845 0.651390 -0.263380 0.343070 -0.188510 9.630801 34.067087 6.304633 -2.498246 17.288763 -13.969325 -30.430913 22.856040 -6.332845 2.364285 -1.058476 -0.129380 0.225160 0.016340 -0.338060 
-3.949610 13.067890 -4.841450 -139.643870 83.251975 -92.458104 -16.144152 7.796367 7.433585 15.082249 -21.685845 -80.530562 -58.103449 51.879900 61.242728 3.267387 18.548454 -1.119957 0.353460 0.235250 0.569290 18.218915 -6.979226 3.957482 -42.888656 7.568350 -38.272179 16.308333 -32.051273 73.443276 -2.510746 -13.807471 -0.281183 0.221300 -0.361420 0.020890 -2.455861 -5.751500 -11.039872 28.652675 -10.626264 63.647693 -8.856611 3.181878 1.945874 11.892996 6.775956 -14.325045 10.132528 -11.522403 48.720308 -9.622280 -5.538680 -20.544240 -32.571685 -28.467247 9.188951 -15.659428 -1.058004 -9.466206 5.834074 -43.373861 -2.922325 -3.322118 2.976643 0.656800 -0.210990 0.317730 -0.212160 7.620930 33.385040 3.982267 -4.396782 20.051206 -15.421027 -34.173124 25.404278 -8.126583 2.278016 -1.089924 -0.177790 0.249540 0.040240 -0.381930 
-4.071210 13.076240 -4.802850 -144.397981 79.719060 -94.055781 -16.238384 7.641172 7.826306 17.557930 -20.664059 -83.623824 -65.715559 47.394892 51.985290 2.900355 17.021317 -0.810075 0.400540 0.309700 0.604290 18.142553 -7.414285 3.527835 -40.143380 6.505592 -36.876101 15.124518 -27.201323 66.842984 -2.123112 -12.378550 0.032464 0.264020 -0.399470 0.035210 -2.436462 -5.899987 -10.851554 26.143941 -10.163637 66.870671 -7.234492 3.273248 0.856339 11.314214 6.577799 -12.670850 9.803010 -10.917736 43.478999 -9.921940 -3.844570 -25.204470 -31.327837 -27.725811 9.037148 -15.637900 -3.099275 -8.577967 9.840182 -41.489492 -3.917690 -3.360626 2.883653 0.688970 -0.230120 0.362030 -0.213450 7.660451 32.369741 2.395021 -6.782148 21.361485 -16.562144 -37.888739 28.394128 -9.809410 2.197099 -1.054860 -0.169410 0.250130 0.021680 -0.400570 
-4.207540 13.049060 -4.707040 -148.529350 75.727400 -93.648072 -16.374281 7.218358 8.336208 22.822655 -18.924903 -89.755201 -69.413498 44.980031 48.020653 2.729181 16.419916 -0.648866 0.341790 0.231200 0.587390 18.094218 -7.411757 3.377104 -38.598556 5.327688 -37.218825 16.646096 -25.187852 60.357365 -1.801641 -11.433785 0.270113 0.245970 -0.330490 0.049650 -2.220268 -6.234052 -10.848716 23.181820 -7.732768 68.496984 -3.764835 5.351235 -0.812399 10.341401 7.461259 -11.904444 11.442549 -11.539174 37.081528 -10.218340 -2.269220 -24.626350 -31.230723 -27.428366 8.447548 -14.564697 -6.205305 -7.320093 12.787558 -38.781888 -4.244231 -3.505399 2.797242 0.653480 -0.154130 0.302570 -0.225650 9.542588 31.849170 2.416109 -10.446454 18.692804 -17.809424 -42.367044 31.762963 -11.641744 2.129436 -1.059749 -0.214080 0.245600 0.050770 -0.419150 
-4.301150 12.968030 -4.589520 -149.320433 73.366294 -90.832656 -16.445245 6.887016 8.718852 27.386944 -17.028153 -93.927210 -71.997236 48.585257 48.527151 2.705005 16.702381 -0.718421 0.293380 0.146250 0.645080 18.087897 -7.449059 3.154037 -39.197703 3.482646 -35.489681 19.279608 -23.141863 51.776268 -1.456087 -10.291038 0.540976 0.241020 -0.301400 0.067300 -1.852218 -6.701601 -10.810782 18.460963 -3.875266 69.922916 -1.176052 7.665640 -3.042847 9.851711 9.814384 -11.396835 15.975348 -13.838558 32.227802 -12.491030 -1.135550 -24.906430 -32.300098 -26.926636 7.457452 -10.950670 -8.469402 -6.260536 12.660956 -37.098463 -3.759331 -3.668824 2.694316 0.684180 -0.091800 0.283260 -0.277150 11.641981 30.629288 2.822346 -11.457093 17.145538 -17.618332 -44.292761 31.663028 -11.968226 2.096868 -1.032678 -0.292080 0.268680 0.093440 -0.486800 
-4.375630 12.908840 -4.466450 -150.973130 70.425999 -88.897578 -16.536348 6.706269 9.181027 32.253200 -15.081405 -96.664940 -69.506002 53.884062 53.658101 2.822156 17.358149 -0.879846 0.307620 0.178230 0.690990 18.014715 -7.698732 2.747621 -35.889027 2.308423 -34.380034 17.340685 -19.691831 46.341378 -1.152611 -9.099769 0.866086 0.268720 -0.312660 0.087470 -1.416562 -7.479844 -10.657614 12.833432 0.080729 70.181898 2.980072 9.383702 -3.172034 9.450403 10.997690 -11.219198 18.577263 -13.830220 29.322184 -14.237230 1.093800 -25.575290 -32.111427 -26.457981 7.458959 -9.358729 -8.073501 -6.018019 16.822487 -37.578016 -4.922069 -3.750317 2.661089 0.676740 -0.052900 0.298560 -0.291810 12.459641 30.667825 2.689680 -13.086412 17.637540 -17.729327 -45.614741 29.551644 -11.772509 2.102255 -1.062562 -0.296240 0.258080 0.084970 -0.519100 
-4.471370 12.882400 -4.366740 -153.592917 68.209881 -87.262995 -16.564178 6.484401 9.543177 36.804425 -13.209966 -100.449013 -65.696268 57.397991 58.569021 2.990264 17.870249 -0.966076 0.319120 0.220610 0.675880 18.037347 -7.722655 2.557333 -33.927372 1.144194 -34.982802 15.966646 -17.618313 42.276477 -0.949618 -8.270129 1.125336 0.281320 -0.288740 0.109450 -1.193819 -7.629910 -10.625063 8.612915 2.562102 67.982451 5.777361 9.669610 -1.624965 8.922198 11.422531 -11.328398 19.834812 -11.278789 28.413876 -13.798740 4.386830 -24.581310 -30.268842 -25.988678 7.882486 -9.581596 -6.616773 -6.112289 22.141359 -38.713974 -6.599904 -3.782777 2.686318 0.619900 -0.007950 0.293240 -0.262150 11.821537 30.171973 2.558557 -12.653863 18.215488 -17.694940 -48.429534 28.899108 -12.649327 2.100014 -1.145289 -0.266430 0.222630 0.055910 -0.502180 
-4.563990 12.851570 -4.268340 -154.298085 65.793549 -84.846085 -16.509150 6.503614 9.859885 40.300137 -11.789577 -102.760467 -57.295956 60.861810 67.629150 3.322327 19.052474 -1.145997 0.284310 0.184340 0.607250 18.076811 -7.951428 2.254230 -31.109924 0.450592 -34.414938 13.535849 -14.729228 37.261203 -0.650766 -7.134856 1.528011 0.258480 -0.179530 0.118250 -0.987530 -7.610278 -10.491607 5.403782 4.335709 64.841132 7.744968 9.773357 0.682633 8.451584 11.063751 -11.804068 19.606028 -7.085715 29.086480 -11.593640 7.871100 -20.483340 -30.146980 -26.461690 8.849049 -10.704249 -4.670457 -6.563998 29.521355 -37.524159 -8.668316 -3.867044 2.741547 0.519500 0.072980 0.214920 -0.210180 12.813442 31.303372 2.776875 -12.145531 17.960115 -18.194302 -52.338405 30.445811 -14.682447 2.112536 -1.239429 -0.261190 0.201110 0.046670 -0.457060 
-4.661480 12.792810 -4.232970 -155.974103 63.658517 -84.512113 -16.419053 6.950204 9.831554 39.237318 -15.232708 -104.395025 -50.903734 61.038269 74.246115 3.727125 20.312268 -1.350284 0.319100 0.258840 0.526960 18.046428 -8.350875 1.985134 -29.349407 -0.490265 -32.136980 11.365174 -12.311956 31.976444 -0.453853 -6.077698 1.891377 0.274120 -0.156650 0.135800 -1.062696 -7.267913 -10.259179 4.801703 3.532896 62.065466 7.233234 8.126698 2.905168 8.516114 9.936483 -12.282389 17.734567 -2.920830 30.993736 -8.695810 9.891740 -18.042330 -30.926378 -27.449342 10.141639 -15.356837 -3.618190 -8.105746 42.879590 -34.447931 -12.423037 -3.917278 2.856635 0.433890 0.078080 0.198110 -0.140290 13.570842 32.593958 2.727257 -10.899604 17.707914 -19.032497 -60.095249 36.196268 -20.338881 2.066629 -1.292013 -0.187830 0.133180 -0.000470 -0.383400 
-4.753730 12.736020 -4.231760 -157.581838 62.747759 -85.565537 -16.241708 7.685879 9.298659 33.425258 -22.967342 -102.991379 -42.448535 57.876801 81.773650 4.155237 22.032191 -1.647787 0.336390 0.295810 0.479470 18.021667 -8.749540 1.904362 -29.803473 -1.343597 -28.680448 10.852142 -10.709883 26.606740 -0.341755 -5.392528 2.136758 0.274270 -0.149880 0.130040 -1.452913 -6.504333 -9.988727 5.750176 1.787840 60.903435 3.863854 6.379575 4.088836 8.620759 8.567827 -12.274624 15.020325 -0.374562 32.505614 -7.144110 10.511770 -16.051260 -30.843616 -27.492158 9.710275 -12.428852 -2.214313 -9.433009 47.953662 -35.864304 -14.681430 -3.986411 2.956397 0.374630 0.069090 0.182100 -0.095300 13.226057 32.010106 3.626168 -9.079219 16.074904 -18.662619 -61.084415 35.222736 -20.685633 2.120024 -1.405974 -0.142610 0.092430 -0.036630 -0.333720 
